<?xml version="1.0" encoding="UTF-8"?>
<!DOCTYPE svg PUBLIC "-//W3C//DTD SVG 1.1//EN" "http://www.w3.org/Graphics/SVG/1.1/DTD/svg11.dtd">
<svg xmlns="http://www.w3.org/2000/svg" version="1.1" width="512px" height="512px" style="shape-rendering:geometricPrecision; text-rendering:geometricPrecision; image-rendering:optimizeQuality; fill-rule:evenodd; clip-rule:evenodd" xmlns:xlink="http://www.w3.org/1999/xlink">
<g><path style="opacity:0.962" fill="#d0b335" d="M 246.5,107.5 C 246.196,124.689 246.196,142.023 246.5,159.5C 242.86,160.273 239.193,160.94 235.5,161.5C 236.473,143.88 236.806,126.214 236.5,108.5C 239.764,107.676 243.098,107.342 246.5,107.5 Z"/></g>
<g><path style="opacity:0.902" fill="#d5ba3d" d="M 255.5,107.5 C 256.833,107.5 258.167,107.5 259.5,107.5C 259.783,108.289 260.283,108.956 261,109.5C 260.928,114.308 261.761,118.808 263.5,123C 263.272,123.399 262.938,123.565 262.5,123.5C 260.041,123.31 258.374,124.31 257.5,126.5C 255.544,120.588 254.877,114.255 255.5,107.5 Z"/></g>
<g><path style="opacity:0.956" fill="#d7bd41" d="M 259.5,107.5 C 263.931,107.231 268.265,107.564 272.5,108.5C 272.181,125.91 272.515,143.244 273.5,160.5C 269.821,160.276 266.154,159.942 262.5,159.5C 260.871,153.949 261.205,148.616 263.5,143.5C 261.313,140.474 259.313,137.307 257.5,134C 259.044,130.413 260.711,126.913 262.5,123.5C 262.938,123.565 263.272,123.399 263.5,123C 261.761,118.808 260.928,114.308 261,109.5C 260.283,108.956 259.783,108.289 259.5,107.5 Z"/></g>
<g><path style="opacity:0.937" fill="#cdb032" d="M 236.5,108.5 C 236.806,126.214 236.473,143.88 235.5,161.5C 232.833,162.5 230.167,163.5 227.5,164.5C 228.437,156.555 228.77,148.555 228.5,140.5C 233.8,136.057 233.467,132.057 227.5,128.5C 228.167,122.167 228.833,115.833 229.5,109.5C 231.764,108.781 234.097,108.448 236.5,108.5 Z"/></g>
<g><path style="opacity:0.867" fill="#caac2e" d="M 229.5,109.5 C 228.833,115.833 228.167,122.167 227.5,128.5C 224.794,128.575 222.127,128.908 219.5,129.5C 218.548,123.925 218.214,118.259 218.5,112.5C 221.937,111.055 225.603,110.055 229.5,109.5 Z"/></g>
<g><path style="opacity:0.937" fill="#dac045" d="M 272.5,108.5 C 274.735,108.205 276.735,108.539 278.5,109.5C 277.345,116.655 277.178,123.988 278,131.5C 278.383,130.944 278.883,130.611 279.5,130.5C 278.671,135.486 277.337,140.319 275.5,145C 276.416,145.278 277.082,145.778 277.5,146.5C 277.726,151.562 277.392,156.562 276.5,161.5C 275.209,161.737 274.209,161.404 273.5,160.5C 272.515,143.244 272.181,125.91 272.5,108.5 Z"/></g>
<g><path style="opacity:0.91" fill="#dcc348" d="M 278.5,109.5 C 282.078,109.549 285.411,110.215 288.5,111.5C 286.787,116.481 285.787,121.814 285.5,127.5C 283.97,126.933 282.47,126.267 281,125.5C 280.802,127.382 280.302,129.048 279.5,130.5C 278.883,130.611 278.383,130.944 278,131.5C 277.178,123.988 277.345,116.655 278.5,109.5 Z"/></g>
<g><path style="opacity:0.929" fill="#c8a92a" d="M 218.5,112.5 C 218.214,118.259 218.548,123.925 219.5,129.5C 218.522,129.811 217.855,130.478 217.5,131.5C 218.813,134.754 219.813,138.088 220.5,141.5C 219.175,145.276 218.509,149.443 218.5,154C 218.528,158.58 218.861,163.08 219.5,167.5C 218.486,168.674 217.153,169.34 215.5,169.5C 214.503,151.007 214.17,132.341 214.5,113.5C 215.708,112.766 217.041,112.433 218.5,112.5 Z"/></g>
<g><path style="opacity:0.961" fill="#dfc74c" d="M 288.5,111.5 C 291.067,111.721 293.401,112.388 295.5,113.5C 294.503,131.659 294.17,149.992 294.5,168.5C 292.046,167.773 289.713,166.773 287.5,165.5C 286.533,157.586 286.199,149.586 286.5,141.5C 294.809,136.233 294.475,131.566 285.5,127.5C 285.787,121.814 286.787,116.481 288.5,111.5 Z"/></g>
<g><path style="opacity:0.958" fill="#c6a627" d="M 214.5,113.5 C 214.17,132.341 214.503,151.007 215.5,169.5C 212.525,172.323 209.192,174.656 205.5,176.5C 205.667,157.164 205.5,137.83 205,118.5C 204.617,117.944 204.117,117.611 203.5,117.5C 206.902,115.722 210.569,114.389 214.5,113.5 Z"/></g>
<g><path style="opacity:0.979" fill="#e1ca50" d="M 295.5,113.5 C 298.067,113.721 300.401,114.388 302.5,115.5C 302.141,134.56 301.141,153.56 299.5,172.5C 297.246,171.876 295.579,170.543 294.5,168.5C 294.17,149.992 294.503,131.659 295.5,113.5 Z"/></g>
<g><path style="opacity:0.953" fill="#e3cc53" d="M 302.5,115.5 C 305.157,115.935 307.491,116.935 309.5,118.5C 308.845,138.598 308.178,158.598 307.5,178.5C 304.795,176.488 302.128,174.488 299.5,172.5C 301.141,153.56 302.141,134.56 302.5,115.5 Z"/></g>
<g><path style="opacity:0.972" fill="#c4a323" d="M 203.5,117.5 C 204.117,117.611 204.617,117.944 205,118.5C 205.5,137.83 205.667,157.164 205.5,176.5C 204.5,178.167 203.167,179.5 201.5,180.5C 200.168,171.023 199.501,161.19 199.5,151C 199.534,140.135 199.867,129.302 200.5,118.5C 201.391,117.89 202.391,117.557 203.5,117.5 Z"/></g>
<g><path style="opacity:0.959" fill="#e5cf56" d="M 309.5,118.5 C 311.284,118.893 312.95,119.559 314.5,120.5C 314.199,142.533 314.532,164.533 315.5,186.5C 313.167,183.5 310.5,180.833 307.5,178.5C 308.178,158.598 308.845,138.598 309.5,118.5 Z"/></g>
<g><path style="opacity:0.976" fill="#c2a021" d="M 200.5,118.5 C 199.867,129.302 199.534,140.135 199.5,151C 199.501,161.19 200.168,171.023 201.5,180.5C 198.833,183.833 195.833,186.833 192.5,189.5C 192.667,168.164 192.5,146.831 192,125.5C 191.049,125.116 190.216,124.783 189.5,124.5C 192.678,121.742 196.345,119.742 200.5,118.5 Z"/></g>
<g><path style="opacity:0.976" fill="#e6d158" d="M 314.5,120.5 C 315.167,120.833 315.833,121.167 316.5,121.5C 317.479,143.788 317.812,166.121 317.5,188.5C 316.5,188.167 315.833,187.5 315.5,186.5C 314.532,164.533 314.199,142.533 314.5,120.5 Z"/></g>
<g><path style="opacity:0.967" fill="#e8d35a" d="M 316.5,121.5 C 319.54,122.68 322.206,124.347 324.5,126.5C 324.667,148.836 324.5,171.169 324,193.5C 323.617,194.056 323.117,194.389 322.5,194.5C 320.844,192.54 319.177,190.54 317.5,188.5C 317.812,166.121 317.479,143.788 316.5,121.5 Z"/></g>
<g><path style="opacity:0.966" fill="#c09e1d" d="M 189.5,124.5 C 190.216,124.783 191.049,125.116 192,125.5C 192.5,146.831 192.667,168.164 192.5,189.5C 190.5,192.5 188.5,195.5 186.5,198.5C 185.167,175.5 183.833,152.5 182.5,129.5C 184.55,127.453 186.883,125.786 189.5,124.5 Z"/></g>
<g><path style="opacity:0.952" fill="#ead55c" d="M 324.5,126.5 C 325.778,126.782 326.778,127.449 327.5,128.5C 327.823,152.908 327.49,177.241 326.5,201.5C 324.917,199.337 323.584,197.004 322.5,194.5C 323.117,194.389 323.617,194.056 324,193.5C 324.5,171.169 324.667,148.836 324.5,126.5 Z"/></g>
<g><path style="opacity:0.959" fill="#bd9a1a" d="M 182.5,129.5 C 183.833,152.5 185.167,175.5 186.5,198.5C 182.722,204.722 180.056,211.389 178.5,218.5C 177.883,218.389 177.383,218.056 177,217.5C 176.832,189.664 176.332,161.997 175.5,134.5C 177.531,132.478 179.865,130.811 182.5,129.5 Z"/></g>
<g><path style="opacity:0.955" fill="#ecd75f" d="M 327.5,128.5 C 330.81,130.482 333.81,132.815 336.5,135.5C 336.667,166.168 336.5,196.835 336,227.5C 335.617,226.944 335.117,226.611 334.5,226.5C 333.432,217.63 330.765,209.297 326.5,201.5C 327.49,177.241 327.823,152.908 327.5,128.5 Z"/></g>
<g><path style="opacity:0.568" fill="#caac2e" d="M 221.5,131.5 C 223.924,131.192 226.257,131.526 228.5,132.5C 229.747,134.042 229.747,135.542 228.5,137C 226.655,138.128 224.655,138.628 222.5,138.5C 222.007,136.194 221.674,133.861 221.5,131.5 Z"/></g>
<g><path style="opacity:0.639" fill="#ddc34a" d="M 282.5,130.5 C 285.738,130.349 288.071,131.682 289.5,134.5C 288.14,138.843 285.474,139.843 281.5,137.5C 281.674,135.139 282.007,132.806 282.5,130.5 Z"/></g>
<g><path style="opacity:0.947" fill="#bb9817" d="M 175.5,134.5 C 176.332,161.997 176.832,189.664 177,217.5C 177.383,218.056 177.883,218.389 178.5,218.5C 177.525,221.067 176.858,223.733 176.5,226.5C 174.508,196.518 173.841,166.185 174.5,135.5C 174.5,134.833 174.833,134.5 175.5,134.5 Z"/></g>
<g><path style="opacity:0.948" fill="#ba9615" d="M 174.5,135.5 C 173.841,166.185 174.508,196.518 176.5,226.5C 175.196,236.16 175.196,245.826 176.5,255.5C 174.769,256.985 173.769,258.985 173.5,261.5C 171.94,255.387 170.94,249.053 170.5,242.5C 168.5,242.5 166.5,242.5 164.5,242.5C 166.482,209.389 167.149,176.056 166.5,142.5C 166.5,142.167 166.5,141.833 166.5,141.5C 168.8,139.016 171.467,137.016 174.5,135.5 Z"/></g>
<g><path style="opacity:0.95" fill="#edd961" d="M 336.5,135.5 C 337.167,135.833 337.833,136.167 338.5,136.5C 338.168,174.004 338.502,211.337 339.5,248.5C 339.477,253.297 338.811,257.964 337.5,262.5C 336.77,258.939 336.103,255.273 335.5,251.5C 335.773,243.112 335.44,234.779 334.5,226.5C 335.117,226.611 335.617,226.944 336,227.5C 336.5,196.835 336.667,166.168 336.5,135.5 Z"/></g>
<g><path style="opacity:0.987" fill="#eeda62" d="M 338.5,136.5 C 339.872,137.512 341.205,138.512 342.5,139.5C 341.167,156.153 340.5,173.153 340.5,190.5C 340.507,207.906 340.84,225.239 341.5,242.5C 340.833,244.5 340.167,246.5 339.5,248.5C 338.502,211.337 338.168,174.004 338.5,136.5 Z"/></g>
<g><path style="opacity:0.887" fill="#d2b73a" d="M 246.5,107.5 C 249.5,107.5 252.5,107.5 255.5,107.5C 254.877,114.255 255.544,120.588 257.5,126.5C 257.582,128.252 256.749,129.252 255,129.5C 252.929,128.225 251.429,126.391 250.5,124C 249.365,123.251 248.365,123.417 247.5,124.5C 249.047,127.761 250.713,130.928 252.5,134C 251.049,136.953 249.382,139.787 247.5,142.5C 248.5,143.833 249.5,143.833 250.5,142.5C 251.737,137.813 254.07,136.813 257.5,139.5C 255.541,145.75 254.874,152.416 255.5,159.5C 252.5,159.5 249.5,159.5 246.5,159.5C 246.196,142.023 246.196,124.689 246.5,107.5 Z"/></g>
<g><path style="opacity:0.881" fill="#d5ba3d" d="M 257.5,139.5 C 258.478,142.325 260.478,143.658 263.5,143.5C 261.205,148.616 260.871,153.949 262.5,159.5C 260.167,159.5 257.833,159.5 255.5,159.5C 254.874,152.416 255.541,145.75 257.5,139.5 Z"/></g>
<g><path style="opacity:0.975" fill="#f0dd66" d="M 342.5,139.5 C 347.5,142.5 351.5,146.5 354.5,151.5C 353.336,180.997 353.169,210.664 354,240.5C 354.995,241.066 355.828,241.733 356.5,242.5C 351.5,242.5 346.5,242.5 341.5,242.5C 340.84,225.239 340.507,207.906 340.5,190.5C 340.5,173.153 341.167,156.153 342.5,139.5 Z"/></g>
<g><path style="opacity:0.881" fill="#caac2d" d="M 228.5,140.5 C 228.77,148.555 228.437,156.555 227.5,164.5C 224.833,165.5 222.167,166.5 219.5,167.5C 218.861,163.08 218.528,158.58 218.5,154C 218.509,149.443 219.175,145.276 220.5,141.5C 220.928,144.244 222.095,146.577 224,148.5C 224.5,148.167 225,147.833 225.5,147.5C 224.48,145.568 224.313,143.568 225,141.5C 226.011,140.663 227.178,140.33 228.5,140.5 Z"/></g>
<g><path style="opacity:0.902" fill="#dcc348" d="M 286.5,141.5 C 286.199,149.586 286.533,157.586 287.5,165.5C 283.828,164.165 280.162,162.832 276.5,161.5C 277.392,156.562 277.726,151.562 277.5,146.5C 278.738,144.786 279.405,142.786 279.5,140.5C 281.95,140.298 284.283,140.631 286.5,141.5 Z"/></g>
<g><path style="opacity:0.09" fill="#bd9111" d="M 166.5,141.5 C 166.5,141.833 166.5,142.167 166.5,142.5C 165.609,143.11 164.609,143.443 163.5,143.5C 163.973,142.094 164.973,141.427 166.5,141.5 Z"/></g>
<g><path style="opacity:0.984" fill="#b89413" d="M 166.5,142.5 C 167.149,176.056 166.482,209.389 164.5,242.5C 163.5,242.5 162.5,242.5 161.5,242.5C 163.482,209.723 164.148,176.723 163.5,143.5C 164.609,143.443 165.609,143.11 166.5,142.5 Z"/></g>
<g><path style="opacity:0.98" fill="#b69210" d="M 163.5,143.5 C 164.148,176.723 163.482,209.723 161.5,242.5C 159.833,242.5 158.167,242.5 156.5,242.5C 155.183,228.054 154.516,213.388 154.5,198.5C 154.854,183.293 154.854,168.293 154.5,153.5C 156.788,149.544 159.788,146.211 163.5,143.5 Z"/></g>
<g><path style="opacity:0.987" fill="#f2e06a" d="M 354.5,151.5 C 356.914,152.911 358.581,154.911 359.5,157.5C 358.85,157.196 358.183,156.863 357.5,156.5C 356.333,184.494 356.167,212.494 357,240.5C 357.995,241.066 358.828,241.733 359.5,242.5C 358.5,242.5 357.5,242.5 356.5,242.5C 355.828,241.733 354.995,241.066 354,240.5C 353.169,210.664 353.336,180.997 354.5,151.5 Z"/></g>
<g><path style="opacity:0.972" fill="#b48f0d" d="M 154.5,153.5 C 154.854,168.293 154.854,183.293 154.5,198.5C 154.516,213.388 155.183,228.054 156.5,242.5C 153.833,242.5 151.167,242.5 148.5,242.5C 149.172,241.733 150.005,241.066 151,240.5C 151.83,212.997 151.664,185.664 150.5,158.5C 151.08,156.251 152.413,154.585 154.5,153.5 Z"/></g>
<g><path style="opacity:0.968" fill="#f5e46d" d="M 359.5,157.5 C 364.153,162.134 367.82,167.468 370.5,173.5C 369.174,196.402 369.174,219.402 370.5,242.5C 366.833,242.5 363.167,242.5 359.5,242.5C 358.828,241.733 357.995,241.066 357,240.5C 356.167,212.494 356.333,184.494 357.5,156.5C 358.183,156.863 358.85,157.196 359.5,157.5 Z"/></g>
<g><path style="opacity:0.972" fill="#b28c0a" d="M 150.5,158.5 C 151.664,185.664 151.83,212.997 151,240.5C 150.005,241.066 149.172,241.733 148.5,242.5C 146.167,242.5 143.833,242.5 141.5,242.5C 140.432,241.566 139.099,241.232 137.5,241.5C 137.83,220.993 137.497,200.66 136.5,180.5C 140.182,172.453 144.848,165.12 150.5,158.5 Z"/></g>
<g><path style="opacity:0.957" fill="#d3b73a" d="M 255.5,165.5 C 255.176,215.875 255.509,266.209 256.5,316.5C 253.261,315.538 250.261,314.205 247.5,312.5C 246.679,275.875 246.179,239.208 246,202.5C 245.617,201.944 245.117,201.611 244.5,201.5C 248.664,193.841 251.331,185.674 252.5,177C 252.116,171.731 250.45,166.898 247.5,162.5C 250.437,162.282 253.104,163.282 255.5,165.5 Z"/></g>
<g><path style="opacity:0.98" fill="#d5ba3d" d="M 255.5,165.5 C 259.37,166.263 262.37,168.263 264.5,171.5C 263.504,171.586 262.671,171.252 262,170.5C 261.83,211.071 261.33,251.571 260.5,292C 261.094,292.464 261.761,292.631 262.5,292.5C 261.068,300.389 261.401,308.222 263.5,316C 263.167,316.833 262.833,317.667 262.5,318.5C 260.55,317.628 258.55,316.961 256.5,316.5C 255.509,266.209 255.176,215.875 255.5,165.5 Z"/></g>
<g><path style="opacity:0.971" fill="#d7bd41" d="M 264.5,171.5 C 268.238,173.697 271.571,176.364 274.5,179.5C 273.167,194.151 272.501,209.151 272.5,224.5C 272.667,239.5 272.833,254.5 273,269.5C 273.383,270.056 273.883,270.389 274.5,270.5C 269.455,277.257 265.455,284.59 262.5,292.5C 261.761,292.631 261.094,292.464 260.5,292C 261.33,251.571 261.83,211.071 262,170.5C 262.671,171.252 263.504,171.586 264.5,171.5 Z"/></g>
<g><path style="opacity:0.966" fill="#f8e872" d="M 370.5,173.5 C 373.265,177.455 375.265,181.788 376.5,186.5C 376.5,204.833 376.5,223.167 376.5,241.5C 378.167,241.5 379.833,241.5 381.5,241.5C 382.167,241.5 382.5,241.833 382.5,242.5C 378.5,242.5 374.5,242.5 370.5,242.5C 369.174,219.402 369.174,196.402 370.5,173.5 Z"/></g>
<g><path style="opacity:0.97" fill="#af8a05" d="M 136.5,180.5 C 137.497,200.66 137.83,220.993 137.5,241.5C 136.833,221.833 136.167,202.167 135.5,182.5C 135.833,181.833 136.167,181.167 136.5,180.5 Z"/></g>
<g><path style="opacity:0.992" fill="#dac045" d="M 274.5,179.5 C 276.167,180.5 277.5,181.833 278.5,183.5C 277.502,210.995 277.169,238.662 277.5,266.5C 277.262,268.404 276.262,269.738 274.5,270.5C 273.883,270.389 273.383,270.056 273,269.5C 272.833,254.5 272.667,239.5 272.5,224.5C 272.501,209.151 273.167,194.151 274.5,179.5 Z"/></g>
<g><path style="opacity:0.943" fill="#af8804" d="M 135.5,182.5 C 136.167,202.167 136.833,221.833 137.5,241.5C 139.099,241.232 140.432,241.566 141.5,242.5C 138.167,242.5 134.833,242.5 131.5,242.5C 131.5,226.167 131.5,209.833 131.5,193.5C 132.551,189.731 133.884,186.065 135.5,182.5 Z"/></g>
<g><path style="opacity:0.96" fill="#dcc348" d="M 278.5,183.5 C 281.857,187.535 284.857,191.868 287.5,196.5C 286.167,213.5 286.167,230.5 287.5,247.5C 285.285,254.522 281.952,260.855 277.5,266.5C 277.169,238.662 277.502,210.995 278.5,183.5 Z"/></g>
<g><path style="opacity:0.97" fill="#faea75" d="M 376.5,186.5 C 379.464,191.382 381.464,196.715 382.5,202.5C 381.505,215.323 381.171,228.323 381.5,241.5C 379.833,241.5 378.167,241.5 376.5,241.5C 376.5,223.167 376.5,204.833 376.5,186.5 Z"/></g>
<g><path style="opacity:0.756" fill="#ad8501" d="M 131.5,193.5 C 131.5,209.833 131.5,226.167 131.5,242.5C 129.833,242.5 128.167,242.5 126.5,242.5C 127.958,254.248 129.958,265.915 132.5,277.5C 131.523,280.287 131.19,283.287 131.5,286.5C 124.62,271.93 121.62,256.43 122.5,240C 121.611,223.616 124.611,208.116 131.5,193.5 Z"/></g>
<g><path style="opacity:0.888" fill="#dec64b" d="M 287.5,196.5 C 295.395,213.482 295.395,230.482 287.5,247.5C 286.167,230.5 286.167,213.5 287.5,196.5 Z"/></g>
<g><path style="opacity:0.963" fill="#d0b336" d="M 244.5,201.5 C 245.117,201.611 245.617,201.944 246,202.5C 246.179,239.208 246.679,275.875 247.5,312.5C 242.68,310.926 238.347,308.593 234.5,305.5C 235.818,290.554 236.484,275.387 236.5,260C 236.5,244.996 236.167,230.163 235.5,215.5C 237.719,210.291 240.719,205.624 244.5,201.5 Z"/></g>
<g><path style="opacity:0.814" fill="#fbec77" d="M 382.5,202.5 C 383.117,202.611 383.617,202.944 384,203.5C 389.999,227.844 389.999,252.177 384,276.5C 381.737,281.788 379.57,287.122 377.5,292.5C 376.732,291.737 376.232,290.737 376,289.5C 375.399,291.359 374.566,291.692 373.5,290.5C 378.735,276.225 382.402,261.558 384.5,246.5C 384.415,244.667 383.748,243.334 382.5,242.5C 382.5,241.833 382.167,241.5 381.5,241.5C 381.171,228.323 381.505,215.323 382.5,202.5 Z"/></g>
<g><path style="opacity:0.978" fill="#cdb032" d="M 235.5,215.5 C 236.167,230.163 236.5,244.996 236.5,260C 236.484,275.387 235.818,290.554 234.5,305.5C 232.973,305.573 231.973,304.906 231.5,303.5C 231.824,275.759 231.491,248.093 230.5,220.5C 231.833,218.5 233.5,216.833 235.5,215.5 Z"/></g>
<g><path style="opacity:0.98" fill="#ccaf31" d="M 230.5,220.5 C 231.491,248.093 231.824,275.759 231.5,303.5C 229.973,303.573 228.973,302.906 228.5,301.5C 228.831,275.661 228.498,249.995 227.5,224.5C 227.738,222.596 228.738,221.262 230.5,220.5 Z"/></g>
<g><path style="opacity:0.94" fill="#e1ca50" d="M 302.5,225.5 C 301.761,225.369 301.094,225.536 300.5,226C 301.162,247.931 301.828,269.764 302.5,291.5C 300.557,294.471 297.891,296.471 294.5,297.5C 294.83,280.991 294.496,264.658 293.5,248.5C 296.345,240.461 297.679,232.294 297.5,224C 298.047,223.075 298.713,222.242 299.5,221.5C 300.524,222.852 301.524,224.185 302.5,225.5 Z"/></g>
<g><path style="opacity:0.968" fill="#caac2e" d="M 227.5,224.5 C 228.498,249.995 228.831,275.661 228.5,301.5C 227.761,301.631 227.094,301.464 226.5,301C 223.998,297.667 221.332,294.501 218.5,291.5C 219.153,273.468 218.486,255.802 216.5,238.5C 219.204,233.099 222.871,228.432 227.5,224.5 Z"/></g>
<g><path style="opacity:0.928" fill="#e3cc53" d="M 302.5,225.5 C 305.302,229.439 307.302,233.772 308.5,238.5C 307.294,239.88 307.627,241.047 309.5,242C 308.774,256.45 308.107,270.95 307.5,285.5C 306.557,288.109 304.89,290.109 302.5,291.5C 301.828,269.764 301.162,247.931 300.5,226C 301.094,225.536 301.761,225.369 302.5,225.5 Z"/></g>
<g><path style="opacity:0.978" fill="#c8a92a" d="M 216.5,238.5 C 218.486,255.802 219.153,273.468 218.5,291.5C 216.413,290.415 215.08,288.749 214.5,286.5C 214.5,271.5 214.5,256.5 214.5,241.5C 214.932,240.29 215.599,239.29 216.5,238.5 Z"/></g>
<g><path style="opacity:0.735" fill="#e5cf55" d="M 308.5,238.5 C 314.088,250.716 315.255,263.383 312,276.5C 310.997,279.84 309.497,282.84 307.5,285.5C 308.107,270.95 308.774,256.45 309.5,242C 307.627,241.047 307.294,239.88 308.5,238.5 Z"/></g>
<g><path style="opacity:0.758" fill="#c6a627" d="M 214.5,241.5 C 214.5,256.5 214.5,271.5 214.5,286.5C 209.221,280.855 206.555,274.022 206.5,266C 206.649,256.866 209.315,248.699 214.5,241.5 Z"/></g>
<g><path style="opacity:0.583" fill="#ecd75f" d="M 335.5,251.5 C 336.103,255.273 336.77,258.939 337.5,262.5C 336.042,271.073 332.709,278.74 327.5,285.5C 327.702,283.05 327.369,280.717 326.5,278.5C 330.9,269.871 333.9,260.871 335.5,251.5 Z"/></g>
<g><path style="opacity:0.917" fill="#dec64c" d="M 293.5,248.5 C 294.496,264.658 294.83,280.991 294.5,297.5C 293.221,300.652 290.888,302.652 287.5,303.5C 287.191,291.531 286.191,279.864 284.5,268.5C 288.034,262.096 291.034,255.43 293.5,248.5 Z"/></g>
<g><path style="opacity:0.601" fill="#bd9a19" d="M 176.5,255.5 C 178.116,264.35 181.116,272.683 185.5,280.5C 184.976,282.306 184.309,283.972 183.5,285.5C 178.431,278.311 175.098,270.311 173.5,261.5C 173.769,258.985 174.769,256.985 176.5,255.5 Z"/></g>
<g><path style="opacity:0.923" fill="#dcc348" d="M 284.5,268.5 C 286.191,279.864 287.191,291.531 287.5,303.5C 284.725,306.605 281.392,308.938 277.5,310.5C 277.666,300.828 277.5,291.161 277,281.5C 276.722,280.584 276.222,279.918 275.5,279.5C 278.152,275.518 281.152,271.851 284.5,268.5 Z"/></g>
<g><path style="opacity:0.602" fill="#af8804" d="M 132.5,277.5 C 135.02,282.557 137.02,287.891 138.5,293.5C 137.022,294.448 136.022,295.781 135.5,297.5C 133.884,293.935 132.551,290.269 131.5,286.5C 131.19,283.287 131.523,280.287 132.5,277.5 Z"/></g>
<g><path style="opacity:0.676" fill="#bf9e1e" d="M 185.5,280.5 C 188.831,285.158 192.164,289.825 195.5,294.5C 194.883,294.389 194.383,294.056 194,293.5C 193.583,294.756 192.75,295.423 191.5,295.5C 188.364,292.571 185.697,289.238 183.5,285.5C 184.309,283.972 184.976,282.306 185.5,280.5 Z"/></g>
<g><path style="opacity:0.906" fill="#dac045" d="M 275.5,279.5 C 276.222,279.918 276.722,280.584 277,281.5C 277.5,291.161 277.666,300.828 277.5,310.5C 277.167,311.5 276.5,312.167 275.5,312.5C 274.5,312.5 273.5,312.5 272.5,312.5C 272.5,303.5 272.5,294.5 272.5,285.5C 272.975,283.216 273.975,281.216 275.5,279.5 Z"/></g>
<g><path style="opacity:0.663" fill="#e8d25b" d="M 326.5,278.5 C 327.369,280.717 327.702,283.05 327.5,285.5C 323.543,291.457 319.21,297.123 314.5,302.5C 314.508,299.455 314.841,296.455 315.5,293.5C 319.585,288.757 323.251,283.757 326.5,278.5 Z"/></g>
<g><path style="opacity:0.774" fill="#d9bf42" d="M 272.5,285.5 C 272.5,294.5 272.5,303.5 272.5,312.5C 273.5,312.5 274.5,312.5 275.5,312.5C 273.673,313.932 272.006,315.599 270.5,317.5C 270.167,317.333 269.833,317.167 269.5,317C 265.296,305.944 266.296,295.444 272.5,285.5 Z"/></g>
<g><path style="opacity:0.797" fill="#f8e772" d="M 377.5,292.5 C 376.403,295.686 375.07,298.686 373.5,301.5C 372.883,301.611 372.383,301.944 372,302.5C 371.583,301.244 370.75,300.577 369.5,300.5C 370.267,296.851 371.6,293.518 373.5,290.5C 374.566,291.692 375.399,291.359 376,289.5C 376.232,290.737 376.732,291.737 377.5,292.5 Z"/></g>
<g><path style="opacity:0.599" fill="#b18c09" d="M 138.5,293.5 C 142.563,301.289 146.896,308.956 151.5,316.5C 151.771,318.38 151.104,319.713 149.5,320.5C 143.579,313.67 138.913,306.003 135.5,297.5C 136.022,295.781 137.022,294.448 138.5,293.5 Z"/></g>
<g><path style="opacity:0.581" fill="#c3a223" d="M 195.5,294.5 C 198.93,298.386 202.597,302.053 206.5,305.5C 205.833,306.5 205.167,307.5 204.5,308.5C 198.63,305.726 194.297,301.393 191.5,295.5C 192.75,295.423 193.583,294.756 194,293.5C 194.383,294.056 194.883,294.389 195.5,294.5 Z"/></g>
<g><path style="opacity:0.588" fill="#e2cd52" d="M 315.5,293.5 C 314.841,296.455 314.508,299.455 314.5,302.5C 309.043,308.066 302.71,312.399 295.5,315.5C 294.833,314.167 294.167,312.833 293.5,311.5C 302.287,307.389 309.621,301.389 315.5,293.5 Z"/></g>
<g><path style="opacity:0.595" fill="#f4e36d" d="M 369.5,300.5 C 370.75,300.577 371.583,301.244 372,302.5C 372.383,301.944 372.883,301.611 373.5,301.5C 368.724,311.933 362.391,321.267 354.5,329.5C 354.018,328.584 353.685,327.584 353.5,326.5C 354.187,324.823 354.854,323.156 355.5,321.5C 360.174,314.495 364.841,307.495 369.5,300.5 Z"/></g>
<g><path style="opacity:0.602" fill="#c6a627" d="M 206.5,305.5 C 209.701,306.931 212.701,308.597 215.5,310.5C 214.566,311.568 214.232,312.901 214.5,314.5C 210.402,313.728 207.069,311.728 204.5,308.5C 205.167,307.5 205.833,306.5 206.5,305.5 Z"/></g>
<g><path style="opacity:0.603" fill="#caab2d" d="M 215.5,310.5 C 219.565,312.533 223.565,314.533 227.5,316.5C 228.248,318.332 229.248,319.999 230.5,321.5C 224.61,320.216 219.276,317.883 214.5,314.5C 214.232,312.901 214.566,311.568 215.5,310.5 Z"/></g>
<g><path style="opacity:0.554" fill="#dec54c" d="M 293.5,311.5 C 294.167,312.833 294.833,314.167 295.5,315.5C 292.912,317.625 289.912,318.958 286.5,319.5C 286.167,318.167 285.833,316.833 285.5,315.5C 288.035,313.983 290.702,312.65 293.5,311.5 Z"/></g>
<g><path style="opacity:0.602" fill="#dcc247" d="M 285.5,315.5 C 285.833,316.833 286.167,318.167 286.5,319.5C 283.785,321.072 280.785,322.072 277.5,322.5C 277.167,321.167 276.833,319.833 276.5,318.5C 279.341,317.331 282.341,316.331 285.5,315.5 Z"/></g>
<g><path style="opacity:0.576" fill="#cfb134" d="M 227.5,316.5 C 233.728,318.307 240.061,319.64 246.5,320.5C 246.5,321.833 246.5,323.167 246.5,324.5C 240.858,324.504 235.525,323.504 230.5,321.5C 229.248,319.999 228.248,318.332 227.5,316.5 Z"/></g>
<g><path style="opacity:0.63" fill="#d8be42" d="M 276.5,318.5 C 276.833,319.833 277.167,321.167 277.5,322.5C 272.694,323.901 267.694,324.901 262.5,325.5C 261.167,323.833 261.167,322.167 262.5,320.5C 267.167,319.833 271.833,319.167 276.5,318.5 Z"/></g>
<g><path style="opacity:0.65" fill="#b5910f" d="M 151.5,316.5 C 155.845,320.847 159.845,325.514 163.5,330.5C 163.5,332.5 163.5,334.5 163.5,336.5C 158.49,331.488 153.823,326.155 149.5,320.5C 151.104,319.713 151.771,318.38 151.5,316.5 Z"/></g>
<g><path style="opacity:0.598" fill="#d4b83c" d="M 246.5,320.5 C 251.833,320.5 257.167,320.5 262.5,320.5C 261.167,322.167 261.167,323.833 262.5,325.5C 257.073,325.782 251.74,325.449 246.5,324.5C 246.5,323.167 246.5,321.833 246.5,320.5 Z"/></g>
<g><path style="opacity:0.589" fill="#f0de66" d="M 355.5,321.5 C 354.854,323.156 354.187,324.823 353.5,326.5C 353.685,327.584 354.018,328.584 354.5,329.5C 351.126,333.876 347.126,337.542 342.5,340.5C 341.503,340.53 340.836,340.03 340.5,339C 340.989,337.862 341.322,336.695 341.5,335.5C 345.833,330.5 350.5,325.833 355.5,321.5 Z"/></g>
<g><path style="opacity:0.765" fill="#caab2d" d="M 229.5,331.5 C 228.659,333.379 228.325,335.379 228.5,337.5C 224.5,338.833 224.5,340.167 228.5,341.5C 228.448,343.903 228.781,346.236 229.5,348.5C 227.5,348.167 225.5,347.833 223.5,347.5C 223.167,349.5 222.833,351.5 222.5,353.5C 220.139,353.326 217.806,352.993 215.5,352.5C 217.006,344.809 218.673,337.142 220.5,329.5C 223.829,329.215 226.829,329.882 229.5,331.5 Z"/></g>
<g><path style="opacity:0.786" fill="#dcc247" d="M 286.5,331.5 C 286.802,334.059 286.468,336.393 285.5,338.5C 282.971,337.457 282.138,338.457 283,341.5C 283.383,340.944 283.883,340.611 284.5,340.5C 286.148,342.456 286.815,344.789 286.5,347.5C 285.522,347.811 284.855,348.478 284.5,349.5C 285.348,351.409 285.682,353.409 285.5,355.5C 283.248,356.333 281.081,356.333 279,355.5C 276.691,347.932 274.858,340.266 273.5,332.5C 276.865,332.046 280.198,331.38 283.5,330.5C 284.726,330.52 285.726,330.853 286.5,331.5 Z"/></g>
<g><path style="opacity:0.805" fill="#cdaf31" d="M 229.5,331.5 C 233.444,332.11 235.777,334.443 236.5,338.5C 236.49,343.503 234.157,346.836 229.5,348.5C 228.781,346.236 228.448,343.903 228.5,341.5C 228.5,340.167 228.5,338.833 228.5,337.5C 228.325,335.379 228.659,333.379 229.5,331.5 Z"/></g>
<g><path style="opacity:0.733" fill="#dec54b" d="M 286.5,331.5 C 287.822,331.33 288.989,331.663 290,332.5C 294.156,338.954 292.989,343.954 286.5,347.5C 286.815,344.789 286.148,342.456 284.5,340.5C 284.833,339.833 285.167,339.167 285.5,338.5C 286.468,336.393 286.802,334.059 286.5,331.5 Z"/></g>
<g><path style="opacity:0.593" fill="#ba9614" d="M 163.5,330.5 C 167.775,333.142 171.442,336.475 174.5,340.5C 174.062,340.435 173.728,340.601 173.5,341C 174.412,343.251 175.412,345.417 176.5,347.5C 171.848,344.179 167.515,340.513 163.5,336.5C 163.5,334.5 163.5,332.5 163.5,330.5 Z"/></g>
<g><path style="opacity:0.77" fill="#d2b63a" d="M 254.5,339.5 C 254.062,339.435 253.728,339.601 253.5,340C 255.133,344.102 256.133,348.435 256.5,353C 256.272,353.399 255.938,353.565 255.5,353.5C 253.661,354.508 252.328,356.008 251.5,358C 248.854,358.497 246.187,358.664 243.5,358.5C 245.132,354.012 247.465,349.845 250.5,346C 247.791,342.479 245.791,338.646 244.5,334.5C 247.247,334.187 249.914,334.52 252.5,335.5C 253.63,336.622 254.297,337.956 254.5,339.5 Z"/></g>
<g><path style="opacity:0.845" fill="#d5ba3e" d="M 255.5,353.5 C 255.938,353.565 256.272,353.399 256.5,353C 256.133,348.435 255.133,344.102 253.5,340C 253.728,339.601 254.062,339.435 254.5,339.5C 256.815,335.309 260.481,333.643 265.5,334.5C 263.903,338.463 262.236,342.463 260.5,346.5C 262.229,350.29 264.229,353.956 266.5,357.5C 261.33,359.758 257.663,358.424 255.5,353.5 Z"/></g>
<g><path style="opacity:0.585" fill="#ecd760" d="M 341.5,335.5 C 341.322,336.695 340.989,337.862 340.5,339C 340.836,340.03 341.503,340.53 342.5,340.5C 338.102,345.229 333.102,349.229 327.5,352.5C 327.5,350.5 327.5,348.5 327.5,346.5C 332.167,342.833 336.833,339.167 341.5,335.5 Z"/></g>
<g><path style="opacity:0.588" fill="#bd9a1a" d="M 174.5,340.5 C 177.871,342.846 181.204,345.179 184.5,347.5C 184.5,349.167 184.5,350.833 184.5,352.5C 181.525,351.345 178.858,349.678 176.5,347.5C 175.412,345.417 174.412,343.251 173.5,341C 173.728,340.601 174.062,340.435 174.5,340.5 Z"/></g>
<g><path style="opacity:0.644" fill="#e8d25b" d="M 327.5,346.5 C 327.5,348.5 327.5,350.5 327.5,352.5C 324.287,355.274 320.62,357.274 316.5,358.5C 316.011,357.005 315.345,355.671 314.5,354.5C 318.965,352.098 323.298,349.432 327.5,346.5 Z"/></g>
<g><path style="opacity:0.571" fill="#c19f20" d="M 184.5,347.5 C 190.189,350.869 195.856,354.202 201.5,357.5C 199.856,357.81 198.856,358.81 198.5,360.5C 193.472,358.324 188.806,355.657 184.5,352.5C 184.5,350.833 184.5,349.167 184.5,347.5 Z"/></g>
<g><path style="opacity:0.586" fill="#e3cd53" d="M 314.5,354.5 C 315.345,355.671 316.011,357.005 316.5,358.5C 312.309,361.458 307.642,363.458 302.5,364.5C 302.144,362.81 301.144,361.81 299.5,361.5C 304.311,358.93 309.311,356.597 314.5,354.5 Z"/></g>
<g><path style="opacity:0.563" fill="#c6a627" d="M 201.5,357.5 C 207.241,359.523 212.907,361.523 218.5,363.5C 218.563,364.66 218.23,365.994 217.5,367.5C 210.846,366.005 204.512,363.671 198.5,360.5C 198.856,358.81 199.856,357.81 201.5,357.5 Z"/></g>
<g><path style="opacity:0.703" fill="#e0c94f" d="M 299.5,361.5 C 301.144,361.81 302.144,362.81 302.5,364.5C 299.45,366.101 296.116,367.101 292.5,367.5C 291.566,366.432 291.232,365.099 291.5,363.5C 293.993,362.226 296.659,361.56 299.5,361.5 Z"/></g>
<g><path style="opacity:0.582" fill="#caac2e" d="M 218.5,363.5 C 222.136,364.326 225.803,364.992 229.5,365.5C 229.586,366.496 229.252,367.329 228.5,368C 229.381,368.708 230.047,369.542 230.5,370.5C 226.051,369.971 221.718,368.971 217.5,367.5C 218.23,365.994 218.563,364.66 218.5,363.5 Z"/></g>
<g><path style="opacity:0.644" fill="#ddc349" d="M 291.5,363.5 C 291.232,365.099 291.566,366.432 292.5,367.5C 288.453,369.26 284.12,370.26 279.5,370.5C 277.799,369.789 276.799,368.455 276.5,366.5C 281.532,365.659 286.532,364.659 291.5,363.5 Z"/></g>
<g><path style="opacity:0.59" fill="#cfb134" d="M 229.5,365.5 C 235.064,366.905 240.73,367.905 246.5,368.5C 246.5,369.833 246.5,371.167 246.5,372.5C 241.044,372.482 235.711,371.815 230.5,370.5C 230.047,369.542 229.381,368.708 228.5,368C 229.252,367.329 229.586,366.496 229.5,365.5 Z"/></g>
<g><path style="opacity:0.593" fill="#d8be42" d="M 276.5,366.5 C 276.799,368.455 277.799,369.789 279.5,370.5C 273.75,372.15 267.75,372.816 261.5,372.5C 261.267,370.938 260.6,369.605 259.5,368.5C 265.231,368.242 270.898,367.575 276.5,366.5 Z"/></g>
<g><path style="opacity:0.66" fill="#d3b83b" d="M 246.5,368.5 C 250.833,368.5 255.167,368.5 259.5,368.5C 260.6,369.605 261.267,370.938 261.5,372.5C 256.5,372.5 251.5,372.5 246.5,372.5C 246.5,371.167 246.5,369.833 246.5,368.5 Z"/></g>
</svg>
